<?xml version="1.0" encoding="UTF-8"?>
<svg xmlns="http://www.w3.org/2000/svg" onmouseup="{ if(window.parent.document.onmouseup) window.parent.document.onmouseup(arguments[0]);}" width="36" viewBox="0 0 36 36" id="S_Sync_18_N_2x" height="36" data-name="S_Sync_18_N@2x"><defs><style>
      .fill {
        fill: #6e6e6e;
      }

      
    </style></defs><path data-cppathid="10000" d="M35.811,23.508l-8.59-8.325A.72.72,0,0,0,26,15.7V20H15a1,1,0,0,0-1,1v6a1,1,0,0,0,1,1H26v4.3a.72.72,0,0,0,1.221.517l8.59-8.325a.735.735,0,0,0,0-.984Z" class="fill"/><path data-cppathid="10001" d="M.189,11.508l8.59-8.325A.72.72,0,0,1,10,3.7V8H21a1,1,0,0,1,1,1v6a1,1,0,0,1-1,1H10v4.3a.72.72,0,0,1-1.221.517L.189,12.492a.735.735,0,0,1,0-.984Z" class="fill"/></svg>