<?xml version="1.0" encoding="UTF-8"?>
<svg xmlns="http://www.w3.org/2000/svg" onmouseup="{ if(window.parent.document.onmouseup) window.parent.document.onmouseup(arguments[0]);}" xml:space="preserve" style="enable-background:new 0 0 36 36;" viewBox="0 0 36 36" y="0px" x="0px" id="S_Cancel_18_N_2x" version="1.1" xmlns:xlink="http://www.w3.org/1999/xlink"><style type="text/css">
	.st0{fill:none;}
	.st1{fill:#86888B;}
</style><rect data-cppathid="10000" height="36.1" width="36.1" class="st0"/><path data-cppathid="10001" d="M18,2C9.2,2,2,9.2,2,18s7.2,16,16,16s16-7.2,16-16S26.8,2,18,2z M30,18c0,2.5-0.8,4.9-2.2,7L11,8.2  c5.4-3.8,12.9-2.6,16.7,2.8C29.2,13.1,30,15.5,30,18z M6,18c0-2.5,0.8-4.9,2.2-7L25,27.8c-5.4,3.8-12.9,2.6-16.7-2.8  C6.8,22.9,6,20.5,6,18z" class="st1"/></svg>